<?xml version="1.0" encoding="UTF-8" standalone="no"?>
<svg
   xmlns:dc="http://purl.org/dc/elements/1.1/"
   xmlns:cc="http://creativecommons.org/ns#"
   xmlns:rdf="http://www.w3.org/1999/02/22-rdf-syntax-ns#"
   xmlns:svg="http://www.w3.org/2000/svg"
   xmlns="http://www.w3.org/2000/svg"
   viewBox="0 0 1845.3333 914.66669"
   height="914.66669"
   width="1845.3333"
   id="svg24"
   version="1.1">
  <metadata
     id="metadata30">
    <rdf:RDF>
      <cc:Work
         rdf:about="">
        <dc:format>image/svg+xml</dc:format>
        <dc:type
           rdf:resource="http://purl.org/dc/dcmitype/StillImage" />
        <dc:title></dc:title>
      </cc:Work>
    </rdf:RDF>
  </metadata>
  <defs
     id="defs28" />
  <path
     id="path3724"
     d="m 1440.0001,911.92967 c -23.8334,-0.4934 -49.6344,-0.9794 -57.3356,-1.08 l -14.0023,-0.183 -3.3311,-6.2826 c -11.8749,-22.3972 -50.6211,-63.9033 -71.1239,-76.1902 -23.8632,-14.3007 -67.9026,-23.5123 -140.8738,-29.4663 -69.6708,-5.6848 -188.64097,-5.6727 -267.82225,0.027 -10.53554,0.7584 -19.3626,1.1718 -19.61572,0.9186 -0.82882,-0.8288 98.2322,-16.9428 120.77121,-19.6455 58.50626,-7.0157 120.81056,-10.0134 186.00006,-8.9491 73.2058,1.1951 112.4115,8.0738 145.4829,25.5249 20.6653,10.9047 35.6003,24.0019 63.8825,56.0219 l 16.8834,19.1147 17.5423,0.7638 c 9.6483,0.4201 35.726,1.1199 57.9504,1.5552 l 40.4083,0.7914 16.9566,-16.4253 c 26.3046,-25.48 50.6715,-44.3012 73.6,-56.8495 17.8676,-9.7784 48.0715,-18.2175 77.2936,-21.596 6.9667,-0.8055 14.4667,-1.9988 16.6667,-2.6519 2.2,-0.6531 15.7,-1.8298 30,-2.6148 14.3,-0.7851 30.0705,-2.0748 35.0457,-2.8661 17.6911,-2.81379 33.681,-14.35755 37.0095,-26.7188 2.0295,-7.53674 -0.081,-17.36311 -5.4788,-25.51267 -11.0805,-16.72866 -67.7248,-61.19036 -118.2173,-92.7922 -211.6932,-132.49282 -576.5741,-215.58581 -923.69252,-210.3491 -82.01119,1.23724 -120.38608,3.69073 -149.54297,9.56098 -41.0549,8.26571 -56.36499,16.28411 -83.79036,43.88377 -16.39719,16.50138 -33.34726,37.45056 -40.10844,49.57138 l -3.80631,6.8236 -34.70929,0.83692 c -19.09011,0.4603 -57.08336,1.22572 -84.42944,1.70095 l -49.72015,0.86404 -16.76261,-17.56083 C 242.96481,461.69569 202.15636,439.01156 149.33333,433.33436 143.1,432.66443 133.8,431.502 128.66666,430.75119 123.53333,430.00038 116.03333,429.37815 112,429.36847 c -7.97916,-0.0192 -23.054444,-1.88289 -38.451255,-4.75369 -18.862435,-3.51698 -49.490424,-20.80095 -59.97032,-33.84244 -21.5605704,-26.8306 -14.3249364,-58.9948 22.52537,-100.1309 11.331803,-12.64972 33.35889,-32.28559 42.56287,-37.94231 3.3,-2.02816 7.5,-5.05433 9.333333,-6.72482 C 89.833332,244.30391 103.33333,235.76519 118,226.99947 314.33168,109.6593 543.18937,37.174467 798.66664,11.415697 988.13635,-7.6877932 1187.3298,1.0774868 1358.0001,36.028537 c 57.9042,11.85806 123.1565,31.04164 157.3333,46.254683 14.8225,6.5979 23.0185,10.88384 17.3373,9.06625 -1.4645,-0.46854 -12.5645,-3.45027 -24.6666,-6.62608 C 1337.1517,39.889027 1132.578,23.107817 922.66664,36.708097 601.23791,57.533667 301.38444,145.04479 129.64093,268.14971 85.6707,299.66737 57.593122,323.28162 49.423547,335.61544 c -5.398044,8.14956 -7.508245,17.97593 -5.478813,25.51266 3.328538,12.36126 19.318422,23.90502 37.009562,26.71876 4.975136,0.7913 20.745704,2.08104 35.045704,2.86611 14.3,0.78508 27.8,1.96175 30,2.61483 2.2,0.65306 9.7,1.84641 16.66666,2.65188 29.22215,3.37853 59.42601,11.81758 77.29355,21.59605 22.92859,12.54824 47.29547,31.36951 73.60001,56.84952 l 16.95676,16.42523 40.40816,-0.79137 c 22.2245,-0.43527 48.30219,-1.1351 57.95044,-1.55518 l 17.54226,-0.76377 16.88345,-19.11476 c 28.28221,-32.01996 43.2172,-45.11723 63.88252,-56.02192 28.50388,-15.04096 65.88181,-22.69996 126.81617,-25.98554 69.51048,-3.748 207.76437,-3.76681 271.33333,-0.0369 103.77099,6.08873 150.70509,10.64792 221.33339,21.50035 215.7351,33.14888 410.4802,101.20395 580.6667,202.9181 14.6667,8.76572 28.1667,17.30444 30,18.97493 1.8333,1.67049 6.0333,4.69667 9.3333,6.72483 9.204,5.65672 31.2311,25.29258 42.563,37.9423 31.4028,35.0551 41.2604,63.36373 30.3573,87.17907 -4.52,9.87295 -10.5293,17.14735 -20.2536,24.51725 -11.5453,8.7499 -35.704,20.0685 -47.5488,22.277 -15.3968,2.8708 -30.472,4.7346 -38.4512,4.7537 -4.0333,0.01 -11.5333,0.6319 -16.6667,1.3827 -5.1333,0.7509 -14.4333,1.9133 -20.6666,2.5832 -52.7495,5.6693 -93.6459,28.3763 -141.6146,78.6293 l -16.5801,17.3696 -27.236,-0.2533 c -14.9797,-0.1394 -46.736,-0.657 -70.5693,-1.1504 z"
     style="fill:#000000;stroke-width:1.33333337" />
</svg>
