<?xml version="1.0" encoding="UTF-8" standalone="no"?>
<!-- Created with Inkscape (http://www.inkscape.org/) -->

<svg
   xmlns:dc="http://purl.org/dc/elements/1.1/"
   xmlns:cc="http://creativecommons.org/ns#"
   xmlns:rdf="http://www.w3.org/1999/02/22-rdf-syntax-ns#"
   xmlns:svg="http://www.w3.org/2000/svg"
   xmlns="http://www.w3.org/2000/svg"
   xmlns:sodipodi="http://sodipodi.sourceforge.net/DTD/sodipodi-0.dtd"
   xmlns:inkscape="http://www.inkscape.org/namespaces/inkscape"
   width="435.65488mm"
   height="241.72646mm"
   viewBox="0 0 435.65488 241.72646"
   version="1.1"
   id="svg8"
   sodipodi:docname="Speed.svg"
   inkscape:version="0.92.2 (5c3e80d, 2017-08-06)">
  <defs
     id="defs2" />
  <sodipodi:namedview
     id="base"
     pagecolor="#ffffff"
     bordercolor="#666666"
     borderopacity="1.0"
     inkscape:pageopacity="0.0"
     inkscape:pageshadow="2"
     inkscape:zoom="0.33122671"
     inkscape:cx="385.93198"
     inkscape:cy="675.87656"
     inkscape:document-units="mm"
     inkscape:current-layer="layer1"
     showgrid="false"
     showborder="true"
     inkscape:window-width="1920"
     inkscape:window-height="1017"
     inkscape:window-x="-8"
     inkscape:window-y="-8"
     inkscape:window-maximized="1"
     fit-margin-top="0"
     fit-margin-left="0"
     fit-margin-right="0"
     fit-margin-bottom="0" />
  <metadata
     id="metadata5">
    <rdf:RDF>
      <cc:Work
         rdf:about="">
        <dc:format>image/svg+xml</dc:format>
        <dc:type
           rdf:resource="http://purl.org/dc/dcmitype/StillImage" />
        <dc:title></dc:title>
      </cc:Work>
    </rdf:RDF>
  </metadata>
  <g
     inkscape:label="Layer 1"
     inkscape:groupmode="layer"
     id="layer1"
     transform="translate(-420.05678,-52.207031)">
    <path
       style="font-style:normal;font-variant:normal;font-weight:normal;font-stretch:normal;font-size:medium;line-height:normal;font-family:sans-serif;font-variant-ligatures:normal;font-variant-position:normal;font-variant-caps:normal;font-variant-numeric:normal;font-variant-alternates:normal;font-feature-settings:normal;text-indent:0;text-align:start;text-decoration:none;text-decoration-line:none;text-decoration-style:solid;text-decoration-letter-spacing:normal;word-spacing:normal;text-transform:none;writing-mode:lr-tb;direction:ltr;text-orientation:mixed;dominant-baseline:auto;baseline-shift:baseline;text-anchor:start;white-space:normal;shape-padding:0;clip-rule:nonzero;display:inline;overflow:visible;visibility:visible;opacity:1;isolation:auto;mix-blend-mode:normal;color-interpolation:sRGB;color-interpolation-filters:linearRGB;solid-solid-opacity:1;vector-effect:none;fill-opacity:1;fill-rule:nonzero;stroke:none;stroke-width:20;stroke-linecap:butt;stroke-linejoin:round;stroke-miterlimit:9;stroke-dasharray:none;stroke-dashoffset:0;stroke-opacity:1;paint-order:normal;color-rendering:auto;image-rendering:auto;shape-rendering:auto;text-rendering:auto;enable-background:accumulate"
       d="m 430.7215,52.265542 c -1.75399,-7e-5 -3.47715,0.461151 -4.99658,1.337387 l -0.66302,0.382405 c -4.78426,2.760021 -6.4253,8.875821 -3.6654,13.660149 l 7.8269,13.566097 h 5.3e-4 l 53.01536,91.88793 -53.01536,91.88792 h -5.3e-4 l -7.8269,13.56661 c -2.75947,4.78436 -1.11822,10.89982 3.66593,13.65965 l 0.663,0.3824 c 1.51928,0.87615 3.24226,1.33737 4.99607,1.33739 h 79.02567 c 3.5737,-5e-5 6.8758,-1.90701 8.66201,-5.00229 l 8.04706,-13.94849 15.70085,-27.2123 c 0.0881,-0.13231 0.17304,-0.26671 0.25474,-0.40307 l 39.95468,-69.25055 c 0.0595,-0.11087 0.11684,-0.22286 0.17208,-0.3359 l -0.18086,0.31212 c 0.83983,-1.44969 1.30201,-3.08713 1.34411,-4.76198 v -5.2e-4 c 0.0389,-1.83196 -0.42622,-3.6394 -1.34462,-5.225 l 0.27078,0.46715 c -0.0826,-0.16586 -0.1698,-0.32939 -0.26149,-0.49041 L 542.41183,98.831692 c -0.0682,-0.110221 -0.13844,-0.219107 -0.21082,-0.326596 L 526.45624,71.216323 518.40918,57.267821 c -1.78621,-3.09528 -5.08831,-5.00223 -8.66201,-5.002279 z m 16.43105,19.999815 h 56.81927 l 5.16091,8.946223 h 5.3e-4 l 15.94424,27.63449 c 0.0682,0.11022 0.13845,0.2191 0.21084,0.32659 l 36.86546,63.89688 v 0.0605 l -36.82153,63.81987 c -0.0881,0.13232 -0.17306,0.26671 -0.25477,0.40308 l -15.94424,27.63448 h -5.3e-4 l -5.16091,8.94622 h -56.81927 l 55.29326,-95.83651 c 1.7843,-3.09286 1.7843,-6.9024 0,-9.99526 z"
       id="rect4596"
       inkscape:connector-curvature="0"
       sodipodi:nodetypes="ccccccccccccccccccccccccccccccccccccccccccccccccc"
       inkscape:export-xdpi="96"
       inkscape:export-ydpi="96" />
    <path
       style="font-style:normal;font-variant:normal;font-weight:normal;font-stretch:normal;font-size:medium;line-height:normal;font-family:sans-serif;font-variant-ligatures:normal;font-variant-position:normal;font-variant-caps:normal;font-variant-numeric:normal;font-variant-alternates:normal;font-feature-settings:normal;text-indent:0;text-align:start;text-decoration:none;text-decoration-line:none;text-decoration-style:solid;text-decoration-letter-spacing:normal;word-spacing:normal;text-transform:none;writing-mode:lr-tb;direction:ltr;text-orientation:mixed;dominant-baseline:auto;baseline-shift:baseline;text-anchor:start;white-space:normal;shape-padding:0;clip-rule:nonzero;display:inline;overflow:visible;visibility:visible;opacity:1;isolation:auto;mix-blend-mode:normal;color-interpolation:sRGB;color-interpolation-filters:linearRGB;solid-solid-opacity:1;vector-effect:none;fill-opacity:1;fill-rule:nonzero;stroke:none;stroke-width:20;stroke-linecap:butt;stroke-linejoin:round;stroke-miterlimit:9;stroke-dasharray:none;stroke-dashoffset:0;stroke-opacity:1;paint-order:normal;color-rendering:auto;image-rendering:auto;shape-rendering:auto;text-rendering:auto;enable-background:accumulate"
       d="m 702.72852,52.207031 c -1.75387,1.67e-4 -3.47686,0.461561 -4.9961,1.337891 l -0.66211,0.380859 c -4.78448,2.759812 -6.42581,8.875667 -3.66601,13.660157 l 7.82617,13.566406 53.01562,91.888676 -53.01562,91.88867 -7.82617,13.56445 c -2.7598,4.78449 -1.11847,10.90035 3.66601,13.66016 l 0.66211,0.38281 c 1.51924,0.87633 3.24223,1.33772 4.9961,1.33789 h 79.02539 c 3.57367,5e-5 6.8758,-1.90677 8.66211,-5.00195 l 8.04882,-13.94922 15.69141,-27.19727 c 0.0913,-0.13713 0.17924,-0.2765 0.26367,-0.41797 l 39.95508,-69.25 c 0.058,-0.10898 0.11402,-0.21902 0.16797,-0.33007 l -0.18555,0.32031 c 0.84145,-1.44719 1.30617,-3.08244 1.35156,-4.75586 v -0.004 c 0.0425,-1.84304 -0.42523,-3.66196 -1.35156,-5.25586 l 0.27539,0.47461 c -0.0815,-0.16375 -0.16746,-0.32524 -0.25781,-0.48428 L 814.41992,98.773438 c -0.0688,-0.111409 -0.13977,-0.221457 -0.21289,-0.330079 L 798.46484,71.158203 790.41602,57.208984 c -1.78631,-3.095186 -5.08844,-5.002007 -8.66211,-5.001953 z m 16.43164,20 h 56.81836 l 5.1621,8.945313 15.94336,27.634766 c 0.0688,0.11141 0.13978,0.22146 0.2129,0.33008 L 834.15625,173 v 0.0801 l -36.82422,63.82422 c -0.0857,0.12828 -0.16839,0.25852 -0.24805,0.39062 l -15.94336,27.63477 -5.1621,8.94531 h -56.81836 l 55.29296,-95.83594 c 1.78462,-3.09307 1.78462,-6.90302 0,-9.99609 z"
       id="path4619"
       inkscape:connector-curvature="0"
       sodipodi:nodetypes="ccccccccccccccccccccccccccccccccccccccccccccc"
       inkscape:export-xdpi="96"
       inkscape:export-ydpi="96" />
    <path
       style="font-style:normal;font-variant:normal;font-weight:normal;font-stretch:normal;font-size:medium;line-height:normal;font-family:sans-serif;font-variant-ligatures:normal;font-variant-position:normal;font-variant-caps:normal;font-variant-numeric:normal;font-variant-alternates:normal;font-feature-settings:normal;text-indent:0;text-align:start;text-decoration:none;text-decoration-line:none;text-decoration-style:solid;text-decoration-letter-spacing:normal;word-spacing:normal;text-transform:none;writing-mode:lr-tb;direction:ltr;text-orientation:mixed;dominant-baseline:auto;baseline-shift:baseline;text-anchor:start;white-space:normal;shape-padding:0;clip-rule:nonzero;display:inline;overflow:visible;visibility:visible;opacity:1;isolation:auto;mix-blend-mode:normal;color-interpolation:sRGB;color-interpolation-filters:linearRGB;solid-solid-opacity:1;vector-effect:none;fill-opacity:1;fill-rule:nonzero;stroke:none;stroke-width:20;stroke-linecap:butt;stroke-linejoin:round;stroke-miterlimit:9;stroke-dasharray:none;stroke-dashoffset:0;stroke-opacity:1;paint-order:normal;color-rendering:auto;image-rendering:auto;shape-rendering:auto;text-rendering:auto;enable-background:accumulate"
       d="m 566.7207,52.246094 c -1.75387,1.69e-4 -3.47685,0.461562 -4.99609,1.33789 l -0.66211,0.382813 c -4.78331,2.759755 -6.42449,8.874146 -3.66602,13.658203 l 7.82618,13.566406 53.01562,91.888674 -53.01562,91.88867 -7.82618,13.56445 c -2.7598,4.78449 -1.11847,10.90035 3.66602,13.66016 l 0.66211,0.38281 c 1.51924,0.87633 3.24222,1.33772 4.99609,1.33789 h 79.02539 c 3.57367,5e-5 6.8758,-1.90677 8.66211,-5.00195 l 8.04883,-13.94922 15.69141,-27.19727 c 0.0913,-0.13713 0.17924,-0.27649 0.26367,-0.41796 l 39.95508,-69.25 c 0.058,-0.10898 0.11402,-0.21903 0.16797,-0.33008 l -0.18555,0.32031 c 0.84145,-1.44719 1.30617,-3.08244 1.35156,-4.75586 v -0.004 c 0.0425,-1.84303 -0.42524,-3.66195 -1.35156,-5.25585 l 0.27539,0.47461 c -0.0815,-0.16379 -0.16746,-0.32531 -0.25781,-0.48438 l -39.95508,-69.25 c -0.0688,-0.111409 -0.13977,-0.221456 -0.21289,-0.330078 L 662.45703,71.197266 654.4082,57.248047 c -1.78631,-3.095186 -5.08844,-5.002007 -8.66211,-5.001953 z m 16.43164,20 h 56.81836 l 5.16211,8.945312 15.94336,27.634764 c 0.0688,0.11141 0.13977,0.22146 0.21289,0.33008 l 36.85938,63.88477 v 0.0781 l -36.8125,63.80469 c -0.0899,0.13459 -0.17651,0.27135 -0.25977,0.41015 l -15.94336,27.63477 -5.16211,8.94531 h -56.81836 l 55.29297,-95.83594 c 1.78462,-3.09307 1.78462,-6.90302 0,-9.99609 z"
       id="path4621"
       inkscape:connector-curvature="0"
       sodipodi:nodetypes="ccccccccccccccccccccccccccccccccccccccccccccc"
       inkscape:export-xdpi="96"
       inkscape:export-ydpi="96" />
  </g>
</svg>
