<?xml version="1.0" encoding="UTF-8" standalone="no"?>
<!-- Created with Inkscape (http://www.inkscape.org/) -->

<svg
   xmlns:dc="http://purl.org/dc/elements/1.1/"
   xmlns:cc="http://creativecommons.org/ns#"
   xmlns:rdf="http://www.w3.org/1999/02/22-rdf-syntax-ns#"
   xmlns:svg="http://www.w3.org/2000/svg"
   xmlns="http://www.w3.org/2000/svg"
   xmlns:sodipodi="http://sodipodi.sourceforge.net/DTD/sodipodi-0.dtd"
   xmlns:inkscape="http://www.inkscape.org/namespaces/inkscape"
   width="394.99365mm"
   height="97.867249mm"
   viewBox="0 0 394.99365 97.867249"
   version="1.1"
   id="svg8"
   inkscape:version="0.92.2 (5c3e80d, 2017-08-06)"
   sodipodi:docname="Car Side View.svg">
  <defs
     id="defs2" />
  <sodipodi:namedview
     id="base"
     pagecolor="#ffffff"
     bordercolor="#666666"
     borderopacity="1.0"
     inkscape:pageopacity="0.0"
     inkscape:pageshadow="2"
     inkscape:zoom="0.78"
     inkscape:cx="712.80047"
     inkscape:cy="60.296746"
     inkscape:document-units="mm"
     inkscape:current-layer="layer2"
     showgrid="false"
     showborder="true"
     fit-margin-top="0"
     fit-margin-left="0"
     fit-margin-right="0"
     fit-margin-bottom="0"
     inkscape:window-width="1920"
     inkscape:window-height="1017"
     inkscape:window-x="-8"
     inkscape:window-y="-8"
     inkscape:window-maximized="1" />
  <metadata
     id="metadata5">
    <rdf:RDF>
      <cc:Work
         rdf:about="">
        <dc:format>image/svg+xml</dc:format>
        <dc:type
           rdf:resource="http://purl.org/dc/dcmitype/StillImage" />
        <dc:title></dc:title>
      </cc:Work>
    </rdf:RDF>
  </metadata>
  <g
     inkscape:groupmode="layer"
     id="layer3"
     inkscape:label="Back"
     style="display:inline">
    <path
       style="fill:#ff5555;fill-opacity:1;stroke:none;stroke-width:12.40818882;stroke-miterlimit:4;stroke-dasharray:none;stroke-opacity:1"
       d="M 961.53906 14.148438 L 961.53906 305.61328 L 997.38086 305.77539 C 1148.1617 313.6025 1138.1807 342.49588 1155.6562 362.80664 L 1375.1777 363.6875 L 1390.4863 363.6875 C 1421.0259 319.45501 1532.7041 233.07961 1465.5801 159.69922 C 1414.0334 103.34805 1225.6912 36.732258 961.53906 14.148438 z "
       transform="scale(0.26458333)"
       id="path4548" />
  </g>
  <g
     inkscape:groupmode="layer"
     id="layer2"
     inkscape:label="Front"
     style="display:inline">
    <path
       id="path4555"
       d="M 776.13281,6.2070312 C 752.15082,6.1673892 727.75575,6.5004873 702.98047,7.2324219 531.83626,12.288526 108.58797,43.326484 14.519531,205.16406 c -29.514104,50.77678 24.795125,84.68211 79.070313,88.0293 80.771226,4.98127 128.537566,25.28052 168.761716,70.49414 h 229.66016 c 12.35531,-12.42259 66.29045,-58.60125 186.13281,-59.35156 l 283.39453,1.27734 V 14.148438 C 903.21141,9.1616848 841.19797,6.3145836 776.13281,6.2070312 Z"
       style="fill:#7fff2a;fill-opacity:1;stroke:none;stroke-width:12.40818882;stroke-miterlimit:4;stroke-dasharray:none;stroke-opacity:1"
       transform="scale(0.26458333)"
       inkscape:connector-curvature="0" />
  </g>
  <g
     inkscape:groupmode="layer"
     id="layer4"
     inkscape:label="Border"
     style="display:inline">
    <path
       style="color:#000000;font-style:normal;font-variant:normal;font-weight:normal;font-stretch:normal;font-size:medium;line-height:normal;font-family:sans-serif;font-variant-ligatures:normal;font-variant-position:normal;font-variant-caps:normal;font-variant-numeric:normal;font-variant-alternates:normal;font-feature-settings:normal;text-indent:0;text-align:start;text-decoration:none;text-decoration-line:none;text-decoration-style:solid;text-decoration-color:#000000;letter-spacing:normal;word-spacing:normal;text-transform:none;writing-mode:lr-tb;direction:ltr;text-orientation:mixed;dominant-baseline:auto;baseline-shift:baseline;text-anchor:start;white-space:normal;shape-padding:0;clip-rule:nonzero;display:inline;overflow:visible;visibility:visible;opacity:1;isolation:auto;mix-blend-mode:normal;color-interpolation:sRGB;color-interpolation-filters:linearRGB;solid-color:#000000;solid-opacity:1;vector-effect:none;fill:#000000;fill-opacity:1;fill-rule:nonzero;stroke:none;stroke-width:12.40818882;stroke-linecap:butt;stroke-linejoin:miter;stroke-miterlimit:4;stroke-dasharray:none;stroke-dashoffset:0;stroke-opacity:1;color-rendering:auto;image-rendering:auto;shape-rendering:auto;text-rendering:auto;enable-background:accumulate"
       d="m 776.14062,0 c -11.99326,-0.01966176 -24.08776,0.05589801 -36.28124,0.2265625 -0.0301,4.2081e-4 -0.0598,-4.2198e-4 -0.0898,0 -6.5e-4,9.09e-6 -10e-4,-9.09e-6 -0.002,0 C 727.54194,0.3966403 715.21682,0.66433724 702.79688,1.03125 617.0011,3.565907 468.16293,12.582618 328.5957,41.328125 274.07792,52.556704 220.88435,66.680073 173.37891,84.744141 c -5.7e-4,2.16e-4 -10e-4,-2.16e-4 -0.002,0 -7.60094,2.8903 -15.05587,5.880127 -22.34765,8.976562 -3.64589,1.548217 -7.25256,3.123248 -10.81446,4.724609 -7.12336,3.202258 -14.07337,6.512348 -20.83398,9.933598 -7.8e-4,3.9e-4 -0.001,0.002 -0.002,0.002 -1.68949,0.85498 -3.36777,1.71694 -5.03321,2.58594 -46.65388,24.34322 -83.76302,54.21027 -105.1914031,91.07617 -2.4834162,4.27253 -4.4416921,8.50485 -5.9003907,12.66992 -0.2912437,0.8316 -0.5630381,1.66032 -0.8144531,2.48633 -3.57e-4,10e-4 3.57e-4,0.003 0,0.004 -0.2513452,0.82597 -0.4854053,1.64882 -0.6972656,2.46876 -1.555e-4,6e-4 1.554e-4,0.001 0,0.002 -0.211981,0.82051 -0.4033913,1.63712 -0.5761719,2.45117 -1.38513197,6.51789 -1.51959131,12.82045 -0.48828122,18.79883 1.93334312,11.20754 7.85489482,20.99367 16.09374962,29.03515 0.548897,0.53575 1.106796,1.06383 1.675782,1.58399 3.5e-4,3.2e-4 0.0016,-3.2e-4 0.002,0 0.56899,0.52015 1.146129,1.03495 1.734375,1.54101 3.7e-4,3.2e-4 0.0016,-3.1e-4 0.002,0 0.58825,0.50605 1.186072,1.00612 1.792969,1.49805 1.214913,0.98484 2.465986,1.93908 3.751953,2.86719 0.6428,0.46389 1.293481,0.92143 1.953125,1.37109 0.660046,0.45 1.327607,0.8924 2.003906,1.32813 0.675878,0.43541 1.359277,0.86207 2.050781,1.2832 7.69e-4,4.7e-4 0.0012,10e-4 0.002,0.002 1.134632,0.69109 2.29422,1.35724 3.46875,2.00977 0.256635,0.14255 0.509117,0.28898 0.767578,0.42969 5.01e-4,2.7e-4 0.0015,-2.8e-4 0.002,0 0.720434,0.39219 1.447427,0.7784 2.18164,1.15625 0.735186,0.37842 1.476218,0.74927 2.22461,1.11328 0.747916,0.36371 1.501221,0.71907 2.261718,1.06836 2.282096,1.04837 4.617529,2.03131 7.001954,2.94922 1.589066,0.61172 3.199697,1.19456 4.828124,1.74804 12.213206,4.15111 25.46512,6.66056 38.728516,7.47852 37.447335,2.30943 67.318375,7.80266 92.527345,17.52734 5.7e-4,2.2e-4 0.001,-2.2e-4 0.002,0 1.68001,0.64811 3.33905,1.31595 4.97851,2.00196 3.28003,1.37247 6.48131,2.8217 9.60938,4.3496 6.25612,3.05581 12.222,6.42744 17.95312,10.13477 1.43274,0.92687 2.84966,1.87461 4.25391,2.84375 2.80903,1.93849 5.56221,3.9609 8.26758,6.07227 1.35243,1.05554 2.69236,2.13274 4.02148,3.23242 2.65871,2.1996 5.27189,4.48726 7.84766,6.86719 1.28767,1.1898 2.56444,2.40287 3.83398,3.63867 1.2699,1.2361 2.53168,2.49459 3.78516,3.77734 2.50626,2.56483 4.98064,5.2235 7.43164,7.97852 l 0.64062,0.7207 1.20703,1.36133 h 235.02344 l 0.002,-0.002 h 0.002 l 1.81054,-1.82031 0.008,-0.008 0.002,-0.002 c 1.7825,-1.79221 4.55798,-4.40995 8.42383,-7.55469 1.2132,-0.9869 2.56709,-2.03771 3.99804,-3.11914 1.05145,-0.79463 2.15631,-1.6083 3.32813,-2.44531 0.28239,-0.20172 0.54061,-0.3957 0.83008,-0.59961 7.1e-4,-5.1e-4 10e-4,-10e-4 0.002,-0.002 1.04066,-0.73306 2.12863,-1.47987 3.26172,-2.23828 0.001,-9.7e-4 0.002,-0.003 0.004,-0.004 1.13332,-0.75852 2.31369,-1.52755 3.54101,-2.30664 10e-4,-9.4e-4 0.002,-0.003 0.004,-0.004 1.22709,-0.77889 2.50163,-1.56664 3.82422,-2.36133 0.002,-0.001 0.004,-0.003 0.006,-0.004 1.32211,-0.79434 2.69421,-1.59505 4.11328,-2.4004 2.84346,-1.61359 5.88298,-3.24586 9.125,-4.875 0.003,-0.002 0.006,-0.004 0.01,-0.006 1.6177,-0.81284 3.28663,-1.62402 5.00586,-2.43359 0.004,-0.002 0.008,-0.004 0.0117,-0.006 3.44256,-1.62072 7.09039,-3.22964 10.94922,-4.80859 14.48683,-5.9277 31.95016,-11.42681 52.71875,-15.48828 15.2303,-2.97842 32.23851,-5.18429 51.15234,-6.21875 6.87776,-0.37617 14.00835,-0.59715 21.39649,-0.64453 l 319.02343,1.43945 c 74.92393,3.8956 109.35093,13.19884 126.25973,22.99609 16.9158,9.80134 17.4893,20.17442 27.5566,31.875 l 1.8438,2.14649 222.3652,0.89453 h 18.5723 l 1.8535,-2.67969 c 14.3336,-20.7603 50.3041,-53.95049 74.2852,-91.23242 11.9905,-18.64097 21.1374,-38.54735 22.7656,-59.18164 1.6281,-20.6343 -4.7179,-41.86062 -22.4864,-61.28516 -35.8,-39.13513 -127.721,-79.462214 -261.0088,-110.003264 C 1139.1902,29.479795 1057.9093,16.411581 967.74219,8.4550781 v -0.00391 L 962.58789,8.011715 962.06836,7.966793 C 947.586,6.7284781 932.8784,5.6214919 917.95312,4.65625 c -0.14736,-0.00953 -0.29399,-0.019794 -0.4414,-0.029297 -0.0571,-0.00368 -0.1148,-0.00609 -0.17188,-0.00977 -3.50119,-0.2254306 -7.01615,-0.4425424 -10.54101,-0.6523437 -0.44377,-0.026436 -0.88789,-0.051939 -1.33203,-0.078125 -3.56726,-0.2101405 -7.14126,-0.4154792 -10.73242,-0.609375 -7.64721,-0.4128919 -15.34782,-0.7893982 -23.10157,-1.1269532 -3.11087,-0.13543 -6.23555,-0.2617195 -9.36328,-0.3847656 -1.3737,-0.054125 -2.74807,-0.1064879 -4.125,-0.1582031 -2.77417,-0.1040255 -5.55265,-0.2046586 -8.33984,-0.2988281 -1.81175,-0.06132 -3.63005,-0.1167106 -5.44727,-0.1738282 -2.60425,-0.081704 -5.20492,-0.16722576 -7.82031,-0.24023435 -0.0487,-0.001359 -0.0978,-0.00255 -0.14649,-0.003906 -3.96981,-0.11077808 -7.95201,-0.2102991 -11.94726,-0.30078125 -2.24589,-0.0507536 -4.50398,-0.0924429 -6.75781,-0.13671875 -2.40431,-0.0473405 -4.80936,-0.092915 -7.22266,-0.1328125 -2.2735,-0.0374942 -4.55258,-0.0707176 -6.83398,-0.1015625 -2.43989,-0.0330742 -4.8851,-0.0605442 -7.33399,-0.0859375 -2.23424,-0.0231019 -4.46733,-0.04778361 -6.70898,-0.06445313 -2.7873,-0.02079188 -5.58606,-0.03222739 -8.38477,-0.04296874 C 779.51208,0.01893368 777.83383,0.00277687 776.14062,0 Z m -0.0176,12.410156 c 10e-4,2e-6 0.003,-2e-6 0.004,0 0.008,1.4e-5 0.0169,-1.4e-5 0.0254,0 4.52104,0.0076 9.0204,0.03452 13.51172,0.06836 1.94602,0.01486 3.88594,0.03486 5.82617,0.05469 2.53781,0.02556 5.06957,0.05601 7.59766,0.08984 2.41234,0.03278 4.82528,0.0651 7.22852,0.105469 1.23484,0.02043 2.46283,0.04597 3.69531,0.06836 49.09532,0.905377 96.27961,3.377667 141.32422,7.107422 V 299.38281 l -80.45313,-0.36328 -196.74414,-0.88867 -0.0332,0.002 h -0.004 c -0.0525,3.3e-4 -0.10375,0.002 -0.15625,0.002 -3.60427,0.0238 -7.15231,0.0867 -10.64062,0.18945 -1.77019,0.0521 -3.52505,0.11387 -5.26563,0.18555 -60.04138,2.46214 -102.34296,16.32977 -130.50781,30.51562 -0.56753,0.28481 -1.15473,0.56852 -1.71094,0.85352 -0.0171,0.009 -0.0336,0.0166 -0.0508,0.0254 -20.86676,10.69873 -33.77984,21.46424 -40.16015,27.57812 H 265.04297 c -38.31589,-42.05927 -84.48869,-62.84616 -156.34961,-69.36523 -0.003,-2.9e-4 -0.007,2.9e-4 -0.01,0 -0.7952,-0.0722 -1.61253,-0.13245 -2.41406,-0.20117 -4.0245,-0.34507 -8.109333,-0.65777 -12.296874,-0.91602 -3.247493,-0.20028 -6.496481,-0.51763 -9.724609,-0.94922 -22.596899,-3.02109 -44.19241,-11.56831 -57.427735,-23.66797 -2.834997,-2.59173 -5.288813,-5.31779 -7.326171,-8.17578 -8.42e-4,-0.001 -0.0011,-0.003 -0.002,-0.004 -2.037481,-2.85874 -3.660862,-5.84902 -4.837891,-8.9707 -2.17e-4,-5.7e-4 2.17e-4,-0.001 0,-0.002 -0.195963,-0.51981 -0.379686,-1.04327 -0.550781,-1.57031 -1.93e-4,-6e-4 1.92e-4,-0.001 0,-0.002 -0.171065,-0.52703 -0.330653,-1.05754 -0.476563,-1.59179 -1.66e-4,-6.1e-4 1.66e-4,-0.001 0,-0.002 -0.291924,-1.06911 -0.533195,-2.15207 -0.722656,-3.25 -1.09e-4,-6.3e-4 1.09e-4,-0.001 0,-0.002 -0.09454,-0.54803 -0.176879,-1.10242 -0.246094,-1.66016 -1.58e-4,-0.001 1.58e-4,-0.003 0,-0.004 -0.06924,-0.55841 -0.125058,-1.12109 -0.167969,-1.68946 -4.8e-5,-6.4e-4 4.9e-5,-0.001 0,-0.002 -0.04283,-0.56773 -0.07226,-1.14085 -0.08789,-1.71875 -3.5e-5,-10e-4 3.4e-5,-0.003 0,-0.004 -0.03118,-1.15783 -0.0075,-2.33519 0.07617,-3.53516 4.4e-5,-6.4e-4 -4.5e-5,-0.001 0,-0.002 0.04186,-0.59969 0.09991,-1.20586 0.171875,-1.81641 7.4e-5,-6.3e-4 -7.5e-5,-0.001 0,-0.002 0.07199,-0.61058 0.158674,-1.22599 0.261718,-1.84766 1.04e-4,-6.2e-4 -1.03e-4,-0.001 0,-0.002 0.103081,-0.6217 0.222346,-1.2498 0.357422,-1.88282 1.31e-4,-6.1e-4 -1.3e-4,-10e-4 0,-0.002 0.405944,-1.90056 0.958648,-3.85083 1.669922,-5.85742 2e-4,-5.6e-4 -2e-4,-10e-4 0,-0.002 1.185787,-3.34488 2.8149,-6.84198 4.943359,-10.50391 7.045199,-12.12073 16.108864,-23.538 26.916016,-34.2832 1.080752,-1.07452 2.179573,-2.14201 3.294922,-3.20313 2.230274,-2.12192 4.527266,-4.21835 6.892578,-6.28711 1.182878,-1.03453 2.383785,-2.06265 3.59961,-3.08398 2.431205,-2.04236 4.928635,-4.05885 7.488281,-6.04883 4.06e-4,-3.2e-4 0.0015,3.2e-4 0.002,0 3.840106,-2.98543 7.820686,-5.91223 11.9375,-8.78125 1.372308,-0.95634 2.760155,-1.90608 4.162109,-2.84961 4.205751,-2.83061 8.543199,-5.60374 13.00586,-8.32031 5.950211,-3.6221 12.121901,-7.14337 18.498051,-10.56641 1.59408,-0.85575 3.20098,-1.70535 4.82031,-2.54883 2.70033,-1.4066 5.44439,-2.79136 8.21289,-4.16406 2.21198,-1.09676 4.43738,-2.18837 6.69141,-3.26367 3.383,-1.61383 6.81305,-3.20361 10.28711,-4.76953 1.73726,-0.78308 3.48688,-1.56083 5.24609,-2.33203 1.75847,-0.77086 3.52874,-1.53588 5.30859,-2.29492 7.9e-4,-3.4e-4 0.001,-0.002 0.002,-0.002 1.03111,-0.43973 2.07318,-0.87281 3.11133,-1.30859 3.26176,-1.36923 6.55774,-2.71828 9.88671,-4.04883 1.09981,-0.439571 2.19583,-0.881029 3.30274,-1.316406 7.8e-4,-3.08e-4 0.001,-0.0016 0.002,-0.002 1.12672,-0.443165 2.2645,-0.879525 3.39844,-1.31836 3.25508,-1.259738 6.53894,-2.502266 9.85156,-3.726562 1.19086,-0.440117 2.38009,-0.880839 3.57813,-1.316407 7.8e-4,-2.83e-4 0.001,-0.0017 0.002,-0.002 1.89669,-0.689571 3.80257,-1.372557 5.7168,-2.050781 7.7e-4,-2.75e-4 0.001,-0.0017 0.002,-0.002 2.50706,-0.88826 5.05184,-1.750215 7.58789,-2.619141 14.05634,-4.816209 28.54049,-9.339154 43.36328,-13.576172 5.91564,-1.690953 11.88219,-3.337952 17.89649,-4.939453 2.5516,-0.679447 5.11203,-1.348168 7.67968,-2.011718 2.73665,-0.707222 5.46898,-1.420067 8.22266,-2.109375 10e-4,-3.44e-4 0.003,-0.0016 0.004,-0.002 2.84512,-0.712187 5.7103,-1.400525 8.57226,-2.09375 14.05996,-3.405596 28.30264,-6.597127 42.67188,-9.55664 77.82827,-16.029647 158.81944,-25.89898 229.98046,-31.916016 23.71978,-2.005481 46.3463,-3.583678 67.4004,-4.818359 28.07213,-1.646241 53.34843,-2.682138 74.68554,-3.3125 6.1776,-0.182504 12.33102,-0.341082 18.46094,-0.474609 6.12992,-0.133528 12.23538,-0.243001 18.31641,-0.328126 12.16121,-0.169548 24.22284,-0.242423 36.18164,-0.222656 z m 191.61914,8.503906 c 89.20104,7.918257 169.55634,20.860466 238.62894,36.6875 132.1293,30.275607 223.3079,72.038588 254.6328,106.283208 15.7936,17.26565 20.6607,34.35785 19.2734,51.93945 -1.3872,17.58159 -9.4838,35.79082 -20.8398,53.44531 -21.9166,34.07246 -55.0409,64.98509 -71.9219,88.21289 h -12.3261 l -216.2383,-0.86328 c -6.4778,-8.70145 -10.5183,-21.47358 -29.336,-32.37695 -20.1578,-11.67984 -56.1218,-20.7277 -131.91406,-24.66211 l -0.14844,-0.008 -29.81054,-0.13477 z"
       id="path4538"
       transform="scale(0.26458333)"
       inkscape:connector-curvature="0" />
  </g>
</svg>
